<svg width="1600" height="900" viewBox="0 0 1600 900" fill="none" xmlns="http://www.w3.org/2000/svg">
  <rect width="1600" height="900" fill="#0D1117"/>
  <rect y="540" width="1600" height="360" fill="#152B1A"/>
  <rect y="620" width="1600" height="280" fill="#203A25"/>
  <rect x="0" y="700" width="1600" height="200" fill="#3C2F1B"/>
  <rect x="130" y="380" width="170" height="170" fill="#3B5E3B"/>
  <rect x="300" y="380" width="170" height="170" fill="#4E7A49"/>
  <rect x="470" y="380" width="170" height="170" fill="#2E4D2D"/>
  <rect x="860" y="290" width="220" height="220" fill="#1A2635"/>
  <rect x="900" y="330" width="140" height="140" fill="#49A4F2"/>
  <rect x="1180" y="250" width="110" height="300" fill="#7D5D2F"/>
  <rect x="1290" y="320" width="110" height="230" fill="#916A34"/>
  <rect x="1180" y="220" width="220" height="30" fill="#C47B35"/>
  <rect x="90" y="110" width="230" height="70" fill="#141E2B"/>
  <rect x="980" y="120" width="320" height="55" fill="#141E2B"/>
  <rect x="1330" y="180" width="150" height="45" fill="#141E2B"/>
  <rect x="650" y="120" width="150" height="150" fill="#111827"/>
  <rect x="680" y="150" width="90" height="90" fill="#64D98B"/>
</svg>
